<?xml version="1.0" encoding="UTF-8" standalone="no"?>
<!-- Created with Inkscape (http://www.inkscape.org/) -->

<svg
   xmlns:dc="http://purl.org/dc/elements/1.1/"
   xmlns:cc="http://creativecommons.org/ns#"
   xmlns:rdf="http://www.w3.org/1999/02/22-rdf-syntax-ns#"
   xmlns:svg="http://www.w3.org/2000/svg"
   xmlns="http://www.w3.org/2000/svg"
   xmlns:sodipodi="http://sodipodi.sourceforge.net/DTD/sodipodi-0.dtd"
   xmlns:inkscape="http://www.inkscape.org/namespaces/inkscape"
   width="141.11501"
   height="133.38901"
   id="svg5489"
   version="1.1"
   inkscape:version="0.48.4 r9939"
   sodipodi:docname="Nuevo documento 10">
  <defs
     id="defs5491" />
  <sodipodi:namedview
     id="base"
     pagecolor="#ffffff"
     bordercolor="#666666"
     borderopacity="1.0"
     inkscape:pageopacity="0.0"
     inkscape:pageshadow="2"
     inkscape:zoom="0.35"
     inkscape:cx="511.9861"
     inkscape:cy="-470.44836"
     inkscape:document-units="px"
     inkscape:current-layer="layer1"
     showgrid="false"
     fit-margin-top="0"
     fit-margin-left="0"
     fit-margin-right="0"
     fit-margin-bottom="0"
     inkscape:window-width="679"
     inkscape:window-height="729"
     inkscape:window-x="2283"
     inkscape:window-y="18"
     inkscape:window-maximized="0" />
  <metadata
     id="metadata5494">
    <rdf:RDF>
      <cc:Work
         rdf:about="">
        <dc:format>image/svg+xml</dc:format>
        <dc:type
           rdf:resource="http://purl.org/dc/dcmitype/StillImage" />
        <dc:title></dc:title>
      </cc:Work>
    </rdf:RDF>
  </metadata>
  <g
     inkscape:label="Capa 1"
     inkscape:groupmode="layer"
     id="layer1"
     transform="translate(161.9861,71.475174)">
    <g
       transform="translate(-3016.4301,-5.0671745)"
       id="g4073">
      <path
         style="fill:#898989"
         inkscape:connector-curvature="0"
         id="path4075"
         d="m 2988.646,-66.408 h -127.292 c -3.811,0 -6.91,3.1 -6.91,6.91 v 37.432 c 0,3.811 3.1,6.91 6.91,6.91 h 12.072 v 8.104 c 0,0.884 0.48,1.697 1.256,2.123 0.774,0.424 1.72,0.394 2.465,-0.081 l 15.924,-10.146 h 21.989 v 8.104 c 0,0.884 0.479,1.697 1.256,2.123 0.775,0.424 1.719,0.394 2.465,-0.081 l 15.924,-10.146 h 21.832 l 15.925,10.146 c 0.396,0.252 0.848,0.378 1.301,0.378 0.399,0 0.8,-0.099 1.164,-0.298 0.773,-0.425 1.256,-1.239 1.256,-2.123 v -8.104 h 12.465 c 3.811,0 6.911,-3.1 6.911,-6.91 v -37.432 c 0,-3.81 -3.103,-6.909 -6.913,-6.909 l 0,0 z m 2.07,44.342 c 0,1.141 -0.928,2.069 -2.07,2.069 h -14.884 c -1.339,0 -2.421,1.084 -2.421,2.42 v 6.113 l -12.8,-8.154 c -0.388,-0.247 -0.84,-0.379 -1.3,-0.379 h -23.243 c -0.46,0 -0.912,0.132 -1.3,0.379 l -12.798,8.154 v -6.113 c 0,-1.336 -1.084,-2.42 -2.421,-2.42 h -25.114 c -0.46,0 -0.913,0.132 -1.301,0.379 l -12.799,8.154 v -6.113 c 0,-1.336 -1.083,-2.42 -2.421,-2.42 h -14.491 c -1.141,0 -2.069,-0.928 -2.069,-2.069 v -37.432 c 0,-1.141 0.929,-2.069 2.069,-2.069 h 127.292 c 1.143,0 2.07,0.928 2.07,2.069 v 37.432 z m 0,0" />
      <path
         style="fill:#898989"
         inkscape:connector-curvature="0"
         id="path4077"
         d="m 2885.777,33.87 c 5.31,-3.133 8.879,-8.909 8.879,-15.505 0,-9.923 -8.071,-17.995 -17.995,-17.995 -9.922,0 -17.995,8.072 -17.995,17.995 0,6.596 3.571,12.372 8.88,15.505 -5.822,3.223 -9.775,9.427 -9.775,16.539 v 14.152 c 0,1.336 1.085,2.42 2.421,2.42 h 32.941 c 1.336,0 2.42,-1.084 2.42,-2.42 V 50.409 c 0,-7.112 -3.952,-13.316 -9.776,-16.539 l 0,0 z m -22.269,-15.505 c 0,-7.254 5.901,-13.154 13.153,-13.154 7.254,0 13.154,5.9 13.154,13.154 0,7.252 -5.9,13.154 -13.154,13.154 -7.252,0 -13.153,-5.902 -13.153,-13.154 l 0,0 z m 27.204,43.773 h -28.1 V 50.409 c 0,-7.747 6.302,-14.049 14.049,-14.049 7.747,0 14.049,6.302 14.049,14.049 v 11.729 h 0 z m 0,0" />
      <path
         style="fill:#898989"
         inkscape:connector-curvature="0"
         id="path4079"
         d="m 2872.442,16.23 c -0.388,-0.921 -1.313,-1.521 -2.312,-1.491 -1.005,0.029 -1.905,0.706 -2.221,1.66 -0.316,0.961 0.01,2.042 0.809,2.666 0.809,0.629 1.953,0.675 2.812,0.119 0.964,-0.625 1.349,-1.895 0.912,-2.954 -0.061,-0.147 0.062,0.148 0,0 l 0,0 z m 0,0" />
      <path
         style="fill:#898989"
         inkscape:connector-curvature="0"
         id="path4081"
         d="m 2885.352,16.23 c -0.568,-1.349 -2.241,-1.904 -3.5,-1.137 -1.324,0.81 -1.519,2.674 -0.446,3.776 0.835,0.812 2.143,0.939 3.104,0.267 0.92,-0.645 1.269,-1.871 0.842,-2.906 -0.061,-0.147 0.062,0.148 0,0 l 0,0 z m 0,0" />
      <path
         style="fill:#898989"
         inkscape:connector-curvature="0"
         id="path4083"
         d="m 2934.116,33.87 c 5.308,-3.133 8.879,-8.909 8.879,-15.505 0,-9.923 -8.073,-17.995 -17.995,-17.995 -9.923,0 -17.995,8.072 -17.995,17.995 0,6.596 3.571,12.372 8.879,15.505 -5.821,3.223 -9.774,9.427 -9.774,16.539 v 14.152 c 0,1.336 1.083,2.42 2.421,2.42 h 32.939 c 1.336,0 2.421,-1.084 2.421,-2.42 V 50.409 c 0,-7.112 -3.953,-13.316 -9.775,-16.539 l 0,0 z m -22.27,-15.505 c 0,-7.254 5.9,-13.154 13.154,-13.154 7.252,0 13.154,5.9 13.154,13.154 0,7.252 -5.902,13.154 -13.154,13.154 -7.254,0 -13.154,-5.902 -13.154,-13.154 l 0,0 z m 27.203,43.773 h -28.098 V 50.409 c 0,-7.747 6.302,-14.049 14.049,-14.049 7.747,0 14.049,6.302 14.049,14.049 v 11.729 z m 0,0" />
      <path
         style="fill:#898989"
         inkscape:connector-curvature="0"
         id="path4085"
         d="m 2920.779,16.23 c -0.524,-1.311 -2.143,-1.86 -3.375,-1.206 -1.423,0.755 -1.682,2.704 -0.572,3.845 0.842,0.816 2.157,0.936 3.117,0.257 0.912,-0.645 1.256,-1.868 0.83,-2.896 -0.058,-0.147 0.063,0.148 0,0 l 0,0 z m 0,0" />
      <path
         style="fill:#898989"
         inkscape:connector-curvature="0"
         id="path4087"
         d="m 2933.689,16.23 c -0.57,-1.351 -2.242,-1.899 -3.5,-1.137 -1.327,0.807 -1.516,2.678 -0.447,3.776 0.819,0.796 2.098,0.936 3.056,0.3 0.951,-0.631 1.325,-1.888 0.891,-2.939 -0.061,-0.147 0.062,0.148 0,0 l 0,0 z m 0,0" />
      <path
         style="fill:#898989"
         inkscape:connector-curvature="0"
         id="path4089"
         d="m 2982.453,33.87 c 5.309,-3.133 8.879,-8.909 8.879,-15.505 0,-9.923 -8.071,-17.995 -17.995,-17.995 -9.923,0 -17.995,8.072 -17.995,17.995 0,6.596 3.571,12.372 8.879,15.505 -5.821,3.223 -9.773,9.427 -9.773,16.539 v 14.15 c 0,1.338 1.084,2.421 2.421,2.421 h 32.938 c 1.337,0 2.421,-1.083 2.421,-2.421 v -14.15 c 0,-7.112 -3.953,-13.316 -9.775,-16.539 l 0,0 z m -22.27,-15.505 c 0,-7.254 5.902,-13.154 13.154,-13.154 7.254,0 13.154,5.9 13.154,13.154 0,7.252 -5.9,13.154 -13.154,13.154 -7.252,0 -13.154,-5.902 -13.154,-13.154 l 0,0 z m 27.203,43.773 h -28.097 V 50.409 c 0,-7.747 6.301,-14.049 14.048,-14.049 7.747,0 14.049,6.302 14.049,14.049 v 11.729 z m 0,0" />
      <path
         style="fill:#898989"
         inkscape:connector-curvature="0"
         id="path4091"
         d="m 2969.115,16.23 c -0.115,-0.291 -0.298,-0.568 -0.521,-0.785 -0.908,-0.935 -2.515,-0.933 -3.422,0 -1.348,1.311 -0.628,3.666 1.18,4.072 1.885,0.424 3.498,-1.513 2.763,-3.287 -0.056,-0.147 0.062,0.148 0,0 l 0,0 z m 0,0" />
      <path
         style="fill:#898989"
         inkscape:connector-curvature="0"
         id="path4093"
         d="m 2982.029,16.23 c -0.123,-0.292 -0.301,-0.564 -0.526,-0.785 -1.369,-1.411 -3.815,-0.547 -4.104,1.357 -0.314,2.067 2.086,3.53 3.785,2.333 0.926,-0.654 1.255,-1.859 0.845,-2.905 -0.061,-0.147 0.057,0.148 0,0 l 0,0 z m 0,0" />
      <path
         style="fill:#898989"
         inkscape:connector-curvature="0"
         id="path4095"
         d="M 2978.109,-48.685 H 2871.89 c -1.336,0 -2.42,1.084 -2.42,2.421 0,1.337 1.084,2.42 2.42,2.42 h 106.219 c 1.336,0 2.42,-1.084 2.42,-2.42 0,-1.336 -1.084,-2.421 -2.42,-2.421 l 0,0 z m 0,0" />
      <path
         style="fill:#898989"
         inkscape:connector-curvature="0"
         id="path4097"
         d="M 2978.109,-37.065 H 2871.89 c -1.336,0 -2.42,1.084 -2.42,2.421 0,1.337 1.084,2.42 2.42,2.42 h 106.219 c 1.336,0 2.42,-1.084 2.42,-2.42 0,-1.336 -1.084,-2.421 -2.42,-2.421 l 0,0 z m 0,0" />
    </g>
  </g>
</svg>
