<?xml version="1.0" encoding="UTF-8" standalone="no"?>
<!-- Created with Inkscape (http://www.inkscape.org/) -->

<svg
   xmlns:dc="http://purl.org/dc/elements/1.1/"
   xmlns:cc="http://creativecommons.org/ns#"
   xmlns:rdf="http://www.w3.org/1999/02/22-rdf-syntax-ns#"
   xmlns:svg="http://www.w3.org/2000/svg"
   xmlns="http://www.w3.org/2000/svg"
   xmlns:sodipodi="http://sodipodi.sourceforge.net/DTD/sodipodi-0.dtd"
   xmlns:inkscape="http://www.inkscape.org/namespaces/inkscape"
   width="179.26176"
   height="179.27269"
   id="svg5369"
   version="1.1"
   inkscape:version="0.48.4 r9939"
   sodipodi:docname="Nuevo documento 4">
  <defs
     id="defs5371" />
  <sodipodi:namedview
     id="base"
     pagecolor="#ffffff"
     bordercolor="#666666"
     borderopacity="1.0"
     inkscape:pageopacity="0.0"
     inkscape:pageshadow="2"
     inkscape:zoom="0.35"
     inkscape:cx="559.6309"
     inkscape:cy="52.493492"
     inkscape:document-units="px"
     inkscape:current-layer="layer1"
     showgrid="false"
     fit-margin-top="0"
     fit-margin-left="0"
     fit-margin-right="0"
     fit-margin-bottom="0"
     inkscape:window-width="796"
     inkscape:window-height="861"
     inkscape:window-x="800"
     inkscape:window-y="18"
     inkscape:window-maximized="0" />
  <metadata
     id="metadata5374">
    <rdf:RDF>
      <cc:Work
         rdf:about="">
        <dc:format>image/svg+xml</dc:format>
        <dc:type
           rdf:resource="http://purl.org/dc/dcmitype/StillImage" />
        <dc:title></dc:title>
      </cc:Work>
    </rdf:RDF>
  </metadata>
  <g
     inkscape:label="Capa 1"
     inkscape:groupmode="layer"
     id="layer1"
     transform="translate(209.6309,-405.58298)">
    <g
       transform="translate(-2782.2289,737.51098)"
       id="g4005">
      <g
         id="g4007">
        <path
           style="fill:#898989"
           inkscape:connector-curvature="0"
           id="path4009"
           d="m 2658.979,-331.928 c 2.166,0 4.332,0 6.498,0 0.22,0.031 0.438,0.082 0.658,0.091 7.063,0.305 13.987,1.449 20.786,3.381 37.344,10.612 63.84,44.672 64.904,83.446 0.227,8.259 -0.658,16.397 -2.644,24.42 -11.326,45.787 -56.765,75.072 -103.182,66.422 -18.95,-3.531 -35.208,-12.238 -48.506,-26.196 -14.947,-15.688 -23.102,-34.459 -24.693,-56.074 -0.064,-0.872 -0.135,-1.742 -0.202,-2.613 0,-2.166 0,-4.332 0,-6.498 0.032,-0.237 0.083,-0.474 0.093,-0.712 0.177,-4.127 0.623,-8.227 1.398,-12.284 3.656,-19.151 12.446,-35.56 26.654,-48.917 15.633,-14.698 34.27,-22.708 55.675,-24.267 0.854,-0.063 1.707,-0.133 2.561,-0.199 z m 85.205,89.606 c -0.011,-45.229 -36.689,-81.915 -81.917,-81.934 -45.257,-0.02 -81.977,36.665 -81.995,81.917 -0.02,45.281 36.697,82.006 81.978,81.996 45.252,-0.011 81.944,-36.723 81.934,-81.979 z" />
        <path
           style="fill:#898989"
           inkscape:connector-curvature="0"
           id="path4011"
           d="m 2665.51,-247.098 -4.03,5.95 -27.788,43.769 -13.692,-0.011 38.598,-64.704 c 0.795,-1.32 0.892,-2.721 0.275,-4.144 -1.715,-3.927 -5.88,-13.724 -5.88,-13.724 l -2.938,-0.557 -9.143,0.016 v -8.341 l 20.778,-0.011 31.9,81.667 3.067,-0.341 11.067,-3.678 3.208,9.169 -25.052,7.519 -20.37,-52.579 z" />
      </g>
    </g>
  </g>
</svg>
