<?xml version="1.0" encoding="UTF-8" standalone="no"?>
<!-- Created with Inkscape (http://www.inkscape.org/) -->

<svg
   xmlns:dc="http://purl.org/dc/elements/1.1/"
   xmlns:cc="http://creativecommons.org/ns#"
   xmlns:rdf="http://www.w3.org/1999/02/22-rdf-syntax-ns#"
   xmlns:svg="http://www.w3.org/2000/svg"
   xmlns="http://www.w3.org/2000/svg"
   xmlns:sodipodi="http://sodipodi.sourceforge.net/DTD/sodipodi-0.dtd"
   xmlns:inkscape="http://www.inkscape.org/namespaces/inkscape"
   width="136.52623"
   height="164.114"
   id="svg5574"
   version="1.1"
   inkscape:version="0.48.4 r9939"
   sodipodi:docname="Nuevo documento 13">
  <defs
     id="defs5576" />
  <sodipodi:namedview
     id="base"
     pagecolor="#ffffff"
     bordercolor="#666666"
     borderopacity="1.0"
     inkscape:pageopacity="0.0"
     inkscape:pageshadow="2"
     inkscape:zoom="0.35"
     inkscape:cx="186.8345"
     inkscape:cy="-69.371573"
     inkscape:document-units="px"
     inkscape:current-layer="layer1"
     showgrid="false"
     fit-margin-top="0"
     fit-margin-left="0"
     fit-margin-right="0"
     fit-margin-bottom="0"
     inkscape:window-width="679"
     inkscape:window-height="729"
     inkscape:window-x="2283"
     inkscape:window-y="18"
     inkscape:window-maximized="0" />
  <metadata
     id="metadata5579">
    <rdf:RDF>
      <cc:Work
         rdf:about="">
        <dc:format>image/svg+xml</dc:format>
        <dc:type
           rdf:resource="http://purl.org/dc/dcmitype/StillImage" />
        <dc:title></dc:title>
      </cc:Work>
    </rdf:RDF>
  </metadata>
  <g
     inkscape:label="Capa 1"
     inkscape:groupmode="layer"
     id="layer1"
     transform="translate(-163.1655,-298.87661)">
    <g
       transform="translate(-2960.2165,618.18161)"
       id="g4039">
      <path
         style="fill:#898989"
         inkscape:connector-curvature="0"
         id="path4041"
         d="m 3182.32,-175.424 h -46.248 c -4.34,0 -7.87,-3.53 -7.87,-7.868 v -123.33 c 0,-4.339 3.53,-7.869 7.87,-7.869 h 69.533 v 13.007 c 0,6.996 5.691,12.687 12.685,12.687 h 13.009 v 48.979 c 0,1.33 1.079,2.409 2.409,2.409 1.329,0 2.408,-1.079 2.408,-2.409 v -51.387 c 0,-0.08 -0.01,-0.162 -0.013,-0.24 -0.01,-0.059 -0.016,-0.116 -0.024,-0.172 -0.01,-0.021 -0.01,-0.042 -0.01,-0.061 -0.015,-0.067 -0.031,-0.135 -0.05,-0.199 0,-0.01 0,-0.021 -0.01,-0.03 -0.021,-0.066 -0.044,-0.132 -0.069,-0.195 -0.01,-0.009 -0.01,-0.019 -0.011,-0.026 -0.025,-0.062 -0.054,-0.119 -0.083,-0.177 -0.01,-0.013 -0.012,-0.023 -0.018,-0.036 -0.028,-0.053 -0.062,-0.105 -0.095,-0.157 -0.01,-0.014 -0.017,-0.031 -0.027,-0.045 -0.031,-0.048 -0.067,-0.096 -0.104,-0.141 -0.013,-0.016 -0.023,-0.033 -0.036,-0.049 -0.051,-0.061 -0.104,-0.119 -0.158,-0.174 l -25.694,-25.693 c -0.055,-0.055 -0.112,-0.108 -0.174,-0.158 -0.016,-0.013 -0.033,-0.024 -0.049,-0.036 -0.047,-0.036 -0.092,-0.072 -0.141,-0.104 -0.016,-0.011 -0.031,-0.019 -0.047,-0.028 -0.051,-0.033 -0.103,-0.066 -0.156,-0.094 -0.012,-0.007 -0.024,-0.011 -0.035,-0.018 -0.059,-0.03 -0.118,-0.058 -0.178,-0.083 -0.01,-0.005 -0.018,-0.006 -0.026,-0.011 -0.064,-0.025 -0.129,-0.049 -0.194,-0.069 -0.01,-0.002 -0.021,-0.004 -0.03,-0.007 -0.065,-0.019 -0.132,-0.036 -0.199,-0.05 -0.021,-0.005 -0.04,-0.006 -0.061,-0.01 -0.057,-0.009 -0.114,-0.02 -0.173,-0.025 -0.08,-0.008 -0.16,-0.012 -0.24,-0.012 h -71.941 c -6.996,0 -12.688,5.691 -12.688,12.687 v 123.33 c 0,6.994 5.691,12.686 12.688,12.686 h 46.248 c 1.33,0 2.409,-1.078 2.409,-2.409 0,-1.334 -1.079,-2.413 -2.409,-2.413 l 0,0 z m 28.103,-126.059 v -9.601 l 17.47,17.47 h -9.603 c -4.337,0 -7.867,-3.53 -7.867,-7.869 l 0,0 z m 0,0" />
      <path
         style="fill:#898989"
         inkscape:connector-curvature="0"
         id="path4043"
         d="m 3223.43,-213.964 c -11.246,0 -20.395,9.149 -20.395,20.395 0,11.246 9.148,20.395 20.395,20.395 11.247,0 20.395,-9.149 20.395,-20.395 -10e-4,-11.246 -9.149,-20.395 -20.395,-20.395 l 0,0 z m 0,35.972 c -8.59,0 -15.577,-6.988 -15.577,-15.577 0,-8.589 6.987,-15.577 15.577,-15.577 8.589,0 15.577,6.988 15.577,15.577 0,8.589 -6.988,15.577 -15.577,15.577 l 0,0 z m 0,0" />
      <path
         style="fill:#898989"
         inkscape:connector-curvature="0"
         id="path4045"
         d="m 3257.416,-185.63 -1.525,-0.881 c 0.519,-2.357 0.78,-4.724 0.78,-7.059 0,-2.334 -0.262,-4.702 -0.78,-7.059 l 1.525,-0.88 c 1.151,-0.665 1.975,-1.739 2.319,-3.023 0.344,-1.285 0.167,-2.627 -0.499,-3.778 l -5.137,-8.9 c -0.665,-1.152 -1.739,-1.976 -3.023,-2.321 -1.285,-0.344 -2.626,-0.166 -3.778,0.499 l -1.517,0.875 c -3.516,-3.194 -7.688,-5.597 -12.235,-7.046 v -1.769 c 0,-2.745 -2.233,-4.978 -4.978,-4.978 h -10.278 c -2.744,0 -4.978,2.233 -4.978,4.978 v 1.767 c -4.544,1.449 -8.719,3.854 -12.234,7.048 l -1.517,-0.877 c -1.151,-0.663 -2.493,-0.841 -3.778,-0.497 -1.284,0.345 -2.356,1.168 -3.021,2.319 l -5.139,8.901 c -0.665,1.151 -0.843,2.493 -0.498,3.778 0.344,1.284 1.167,2.357 2.32,3.021 l 1.523,0.882 c -0.518,2.357 -0.781,4.723 -0.781,7.059 0,2.335 0.264,4.702 0.781,7.059 l -1.523,0.881 c -1.153,0.665 -1.977,1.738 -2.32,3.022 -0.345,1.284 -0.167,2.626 0.498,3.778 l 5.139,8.901 c 1.372,2.375 4.422,3.194 6.8,1.822 l 1.517,-0.876 c 3.516,3.194 7.688,5.599 12.234,7.048 v 1.767 c 0,2.744 2.233,4.978 4.978,4.978 h 10.278 c 2.744,0 4.978,-2.233 4.978,-4.978 v -1.767 c 4.545,-1.449 8.72,-3.854 12.235,-7.048 l 1.517,0.876 c 2.376,1.371 5.428,0.554 6.8,-1.822 l 5.139,-8.901 c 0.666,-1.151 0.843,-2.494 0.498,-3.778 -0.345,-1.283 -1.169,-2.356 -2.32,-3.021 l 0,0 z m -6.623,-15.534 c 0.704,2.537 1.061,5.093 1.061,7.595 0,2.502 -0.356,5.057 -1.061,7.595 -0.293,1.059 0.167,2.181 1.119,2.73 l 3.095,1.786 c 0.015,0.008 0.057,0.035 0.074,0.097 0.017,0.064 -0.01,0.108 -0.016,0.123 l -5.14,8.901 c -0.043,0.075 -0.143,0.102 -0.219,0.058 l -3.083,-1.78 c -0.952,-0.55 -2.154,-0.385 -2.924,0.399 -3.603,3.667 -8.154,6.289 -13.164,7.58 -1.063,0.275 -1.808,1.235 -1.808,2.333 v 3.58 c 0,0.089 -0.07,0.161 -0.16,0.161 h -10.278 c -0.087,0 -0.159,-0.072 -0.159,-0.161 v -3.579 c 0,-1.099 -0.744,-2.059 -1.807,-2.334 -5.01,-1.29 -9.562,-3.913 -13.165,-7.58 -0.464,-0.474 -1.089,-0.722 -1.72,-0.722 -0.412,0 -0.828,0.106 -1.202,0.323 l -3.085,1.78 c -0.076,0.045 -0.174,0.019 -0.22,-0.058 l -5.139,-8.901 c -0.01,-0.014 -0.033,-0.058 -0.016,-0.121 0.017,-0.064 0.062,-0.089 0.075,-0.099 l 3.096,-1.786 c 0.95,-0.549 1.41,-1.672 1.117,-2.729 -0.703,-2.538 -1.061,-5.094 -1.061,-7.597 0,-2.501 0.357,-5.058 1.061,-7.595 0.293,-1.057 -0.167,-2.18 -1.117,-2.729 l -3.096,-1.788 c -0.014,-0.008 -0.059,-0.033 -0.075,-0.097 -0.018,-0.064 0.01,-0.107 0.016,-0.121 l 5.139,-8.901 c 0.044,-0.076 0.144,-0.104 0.22,-0.059 l 3.085,1.781 c 0.95,0.549 2.153,0.384 2.923,-0.398 3.603,-3.668 8.154,-6.29 13.164,-7.583 1.063,-0.274 1.807,-1.232 1.807,-2.332 v -3.58 c 0,-0.09 0.072,-0.16 0.161,-0.16 h 10.276 c 0.09,0 0.162,0.07 0.162,0.16 v 3.58 c 0,1.098 0.742,2.058 1.806,2.332 5.01,1.292 9.562,3.913 13.164,7.581 0.77,0.784 1.972,0.947 2.924,0.398 l 3.083,-1.78 c 0.076,-0.046 0.176,-0.017 0.219,0.058 l 5.14,8.901 c 0.01,0.014 0.032,0.058 0.016,0.123 -0.018,0.064 -0.06,0.089 -0.074,0.097 l -3.095,1.786 c -0.952,0.552 -1.412,1.673 -1.119,2.732 l 0,0 z m 0,0" />
      <path
         style="fill:#898989"
         inkscape:connector-curvature="0"
         id="path4047"
         d="m 3141.209,-273.381 h 5.14 c 1.33,0 2.409,-1.078 2.409,-2.409 0,-1.33 -1.079,-2.409 -2.409,-2.409 h -5.14 c -1.329,0 -2.408,1.08 -2.408,2.409 0,1.332 1.079,2.409 2.408,2.409 l 0,0 z m 0,0" />
      <path
         style="fill:#898989"
         inkscape:connector-curvature="0"
         id="path4049"
         d="m 3156.627,-273.381 h 5.139 c 1.33,0 2.409,-1.078 2.409,-2.409 0,-1.33 -1.079,-2.409 -2.409,-2.409 h -5.139 c -1.33,0 -2.409,1.08 -2.409,2.409 0,1.332 1.079,2.409 2.409,2.409 l 0,0 z m 0,0" />
      <path
         style="fill:#898989"
         inkscape:connector-curvature="0"
         id="path4051"
         d="m 3197.735,-278.199 h -25.693 c -1.329,0 -2.409,1.08 -2.409,2.409 0,1.331 1.08,2.409 2.409,2.409 h 25.693 c 1.33,0 2.409,-1.078 2.409,-2.409 0,-1.329 -1.079,-2.409 -2.409,-2.409 l 0,0 z m 0,0" />
      <path
         style="fill:#898989"
         inkscape:connector-curvature="0"
         id="path4053"
         d="m 3179.59,-262.943 c 0,-1.33 -1.079,-2.409 -2.408,-2.409 h -20.555 c -1.33,0 -2.409,1.079 -2.409,2.409 0,1.331 1.079,2.409 2.409,2.409 h 20.555 c 1.329,0 2.408,-1.078 2.408,-2.409 l 0,0 z m 0,0" />
      <path
         style="fill:#898989"
         inkscape:connector-curvature="0"
         id="path4055"
         d="m 3185.051,-262.943 c 0,1.331 1.077,2.409 2.409,2.409 h 17.983 c 1.332,0 2.409,-1.078 2.409,-2.409 0,-1.33 -1.077,-2.409 -2.409,-2.409 h -17.983 c -1.332,0 -2.409,1.08 -2.409,2.409 l 0,0 z m 0,0" />
      <path
         style="fill:#898989"
         inkscape:connector-curvature="0"
         id="path4057"
         d="m 3141.209,-260.534 h 5.14 c 1.33,0 2.409,-1.078 2.409,-2.409 0,-1.33 -1.079,-2.409 -2.409,-2.409 h -5.14 c -1.329,0 -2.408,1.079 -2.408,2.409 0,1.331 1.079,2.409 2.408,2.409 l 0,0 z m 0,0" />
      <path
         style="fill:#898989"
         inkscape:connector-curvature="0"
         id="path4059"
         d="m 3141.209,-247.687 h 5.14 c 1.33,0 2.409,-1.078 2.409,-2.409 0,-1.33 -1.079,-2.409 -2.409,-2.409 h -5.14 c -1.329,0 -2.408,1.079 -2.408,2.409 0,1.331 1.079,2.409 2.408,2.409 l 0,0 z m 0,0" />
      <path
         style="fill:#898989"
         inkscape:connector-curvature="0"
         id="path4061"
         d="m 3174.612,-247.687 h 43.678 c 1.332,0 2.409,-1.078 2.409,-2.409 0,-1.33 -1.077,-2.409 -2.409,-2.409 h -43.678 c -1.331,0 -2.409,1.079 -2.409,2.409 0,1.331 1.078,2.409 2.409,2.409 l 0,0 z m 0,0" />
      <path
         style="fill:#898989"
         inkscape:connector-curvature="0"
         id="path4063"
         d="m 3156.627,-252.505 c -1.33,0 -2.409,1.079 -2.409,2.409 0,1.332 1.079,2.409 2.409,2.409 h 7.707 c 1.33,0 2.409,-1.078 2.409,-2.409 0,-1.33 -1.079,-2.409 -2.409,-2.409 h -7.707 z m 0,0" />
      <path
         style="fill:#898989"
         inkscape:connector-curvature="0"
         id="path4065"
         d="m 3184.889,-239.658 h -28.262 c -1.33,0 -2.409,1.079 -2.409,2.409 0,1.331 1.079,2.409 2.409,2.409 h 28.262 c 1.33,0 2.409,-1.078 2.409,-2.409 0,-1.33 -1.079,-2.409 -2.409,-2.409 l 0,0 z m 0,0" />
      <path
         style="fill:#898989"
         inkscape:connector-curvature="0"
         id="path4067"
         d="m 3154.057,-214.284 h 10.277 c 1.33,0 2.409,-1.079 2.409,-2.409 0,-1.332 -1.079,-2.409 -2.409,-2.409 h -10.277 c -1.33,0 -2.409,1.077 -2.409,2.409 0,1.33 1.079,2.409 2.409,2.409 l 0,0 z m 0,0" />
      <path
         style="fill:#898989"
         inkscape:connector-curvature="0"
         id="path4069"
         d="m 3141.209,-234.84 h 5.14 c 1.33,0 2.409,-1.078 2.409,-2.409 0,-1.33 -1.079,-2.409 -2.409,-2.409 h -5.14 c -1.329,0 -2.408,1.079 -2.408,2.409 0,1.331 1.079,2.409 2.408,2.409 l 0,0 z m 0,0" />
      <path
         style="fill:#898989"
         inkscape:connector-curvature="0"
         id="path4071"
         d="m 3139.506,-214.99 c 0.471,0.469 1.087,0.706 1.703,0.706 0.617,0 1.234,-0.235 1.703,-0.706 l 5.139,-5.139 c 0.941,-0.941 0.941,-2.467 0,-3.406 l -5.139,-5.139 c -0.939,-0.94 -2.465,-0.94 -3.406,0 -0.94,0.941 -0.94,2.465 0,3.407 l 3.437,3.436 -3.437,3.436 c -0.941,0.938 -0.941,2.464 0,3.405 l 0,0 z m 0,0" />
    </g>
  </g>
</svg>
