<?xml version="1.0" encoding="UTF-8" standalone="no"?>
<!-- Created with Inkscape (http://www.inkscape.org/) -->

<svg
   xmlns:dc="http://purl.org/dc/elements/1.1/"
   xmlns:cc="http://creativecommons.org/ns#"
   xmlns:rdf="http://www.w3.org/1999/02/22-rdf-syntax-ns#"
   xmlns:svg="http://www.w3.org/2000/svg"
   xmlns="http://www.w3.org/2000/svg"
   xmlns:sodipodi="http://sodipodi.sourceforge.net/DTD/sodipodi-0.dtd"
   xmlns:inkscape="http://www.inkscape.org/namespaces/inkscape"
   width="1210.92"
   height="364.91599"
   id="svg4812"
   version="1.1"
   inkscape:version="0.48.4 r9939"
   sodipodi:docname="triangulos.svg">
  <defs
     id="defs4814" />
  <sodipodi:namedview
     id="base"
     pagecolor="#ffffff"
     bordercolor="#666666"
     borderopacity="1.0"
     inkscape:pageopacity="0.0"
     inkscape:pageshadow="2"
     inkscape:zoom="0.7"
     inkscape:cx="394.7383"
     inkscape:cy="150.76971"
     inkscape:document-units="px"
     inkscape:current-layer="layer1"
     showgrid="false"
     inkscape:window-width="1362"
     inkscape:window-height="729"
     inkscape:window-x="1600"
     inkscape:window-y="18"
     inkscape:window-maximized="0"
     fit-margin-top="0"
     fit-margin-left="0"
     fit-margin-right="0"
     fit-margin-bottom="0" />
  <metadata
     id="metadata4817">
    <rdf:RDF>
      <cc:Work
         rdf:about="">
        <dc:format>image/svg+xml</dc:format>
        <dc:type
           rdf:resource="http://purl.org/dc/dcmitype/StillImage" />
        <dc:title></dc:title>
      </cc:Work>
    </rdf:RDF>
  </metadata>
  <g
     inkscape:label="Capa 1"
     inkscape:groupmode="layer"
     id="layer1"
     transform="translate(0,-687.44618)">
    <polyline
       transform="translate(-629.571,796.33018)"
       style="fill:#8fbad1"
       id="polyline3303"
       points="1630.962,210.406 1578.276,210.406 1604.619,164.779  " />
    <polygon
       transform="translate(-629.571,796.33018)"
       style="fill:#8fbad1"
       id="polygon3305"
       points="1499.248,164.779 1525.591,210.406 1472.906,210.406 " />
    <polygon
       transform="translate(-629.571,796.33018)"
       style="fill:#223c55"
       id="polygon3307"
       points="1446.563,164.779 1472.904,210.406 1420.221,210.406 " />
    <polygon
       transform="translate(-629.571,796.33018)"
       style="fill:#5e93b6"
       id="polygon3309"
       points="1393.877,164.779 1420.219,210.406 1367.534,210.406 " />
    <polygon
       transform="translate(-629.571,796.33018)"
       style="fill:#8fbad1"
       id="polygon3311"
       points="1341.191,164.779 1367.533,210.406 1314.85,210.406 " />
    <polygon
       transform="translate(-629.571,796.33018)"
       style="fill:#2b4c69"
       id="polygon3313"
       points="1288.505,164.779 1314.848,210.406 1262.162,210.406 " />
    <polygon
       transform="translate(-629.571,796.33018)"
       style="fill:#8fbad1"
       id="polygon3315"
       points="1235.819,164.779 1262.161,210.406 1209.477,210.406 " />
    <polygon
       transform="translate(-629.571,796.33018)"
       style="fill:#8fbad1"
       id="polygon3317"
       points="1183.134,164.779 1209.476,210.406 1156.791,210.406 " />
    <polygon
       transform="translate(-629.571,796.33018)"
       style="fill:#223c55"
       id="polygon3319"
       points="1130.448,164.779 1156.79,210.406 1104.105,210.406 " />
    <polygon
       transform="translate(-629.571,796.33018)"
       style="fill:#223c55"
       id="polygon3321"
       points="1077.763,164.779 1104.104,210.406 1051.421,210.406 " />
    <polygon
       transform="translate(-629.571,796.33018)"
       style="fill:#2b4c69"
       id="polygon3323"
       points="1025.077,164.779 1051.42,210.406 998.734,210.406 " />
    <polygon
       transform="translate(-629.571,796.33018)"
       style="fill:#8fbad1"
       id="polygon3325"
       points="972.391,164.779 998.732,210.406 946.048,210.406 " />
    <polygon
       transform="translate(-629.571,796.33018)"
       style="fill:#8fbad1"
       id="polygon3327"
       points="919.705,164.779 946.047,210.406 893.362,210.406 " />
    <path
       style="fill:#223c55"
       inkscape:connector-curvature="0"
       id="path3329"
       d="M 1080.422,961.10918" />
    <path
       style="fill:#223c55"
       inkscape:connector-curvature="0"
       id="path3331"
       d="M 1133.107,961.10918" />
    <polygon
       transform="translate(-629.571,796.33018)"
       style="fill:#e0edf6"
       id="polygon3333"
       points="1578.278,210.406 1551.937,164.779 1604.62,164.779 " />
    <polygon
       transform="translate(-629.571,796.33018)"
       style="fill:#e0edf6"
       id="polygon3335"
       points="1525.593,210.406 1499.251,164.779 1551.936,164.779 " />
    <polygon
       transform="translate(-629.571,796.33018)"
       style="fill:#5e93b6"
       id="polygon3337"
       points="1420.81,119.152 1447.152,164.779 1394.468,164.779 " />
    <polygon
       transform="translate(-629.571,796.33018)"
       style="fill:#5e93b6"
       id="polygon3339"
       points="1367.534,119.152 1393.877,164.779 1341.193,164.779 " />
    <polygon
       transform="translate(-629.571,796.33018)"
       style="fill:#5e93b6"
       id="polygon3341"
       points="1525.607,119.152 1551.95,164.779 1499.266,164.779 " />
    <polygon
       transform="translate(-629.571,796.33018)"
       style="fill:#223c55"
       id="polygon3343"
       points="1314.85,210.406 1288.508,164.779 1341.193,164.779 " />
    <polygon
       transform="translate(-629.571,796.33018)"
       style="fill:#e0edf6"
       id="polygon3345"
       points="1262.164,210.406 1235.821,164.779 1288.506,164.779 " />
    <polygon
       transform="translate(-629.571,796.33018)"
       style="fill:#8fbad1"
       id="polygon3347"
       points="1262.163,119.152 1288.505,164.779 1235.82,164.779 " />
    <polygon
       transform="translate(-629.571,796.33018)"
       style="fill:#2b4c69"
       id="polygon3349"
       points="1209.479,210.406 1183.136,164.779 1235.82,164.779 " />
    <polygon
       transform="translate(-629.571,796.33018)"
       style="fill:#223c55"
       id="polygon3351"
       points="1209.478,119.152 1235.819,164.779 1183.135,164.779 " />
    <polygon
       transform="translate(-629.571,796.33018)"
       style="fill:#2b4c69"
       id="polygon3353"
       points="1156.793,210.406 1130.451,164.779 1183.135,164.779 " />
    <polygon
       transform="translate(-629.571,796.33018)"
       style="fill:#e0edf6"
       id="polygon3355"
       points="1156.792,119.152 1183.134,164.779 1130.449,164.779 " />
    <polygon
       transform="translate(-629.571,796.33018)"
       style="fill:#2b4c69"
       id="polygon3357"
       points="1104.107,210.406 1077.766,164.779 1130.449,164.779 " />
    <polygon
       transform="translate(-629.571,796.33018)"
       style="fill:#8fbad1"
       id="polygon3359"
       points="1104.106,119.152 1130.448,164.779 1077.765,164.779 " />
    <polygon
       transform="translate(-629.571,796.33018)"
       style="fill:#8fbad1"
       id="polygon3361"
       points="1051.422,210.406 1025.079,164.779 1077.765,164.779 " />
    <polygon
       transform="translate(-629.571,796.33018)"
       style="fill:#e0edf6"
       id="polygon3363"
       points="1051.421,119.152 1077.764,164.779 1025.078,164.779 " />
    <polygon
       transform="translate(-629.571,796.33018)"
       style="fill:#223c55"
       id="polygon3365"
       points="998.736,210.406 972.394,164.779 1025.078,164.779 " />
    <polygon
       transform="translate(-629.571,796.33018)"
       style="fill:#8fbad1"
       id="polygon3367"
       points="998.734,119.152 1025.077,164.779 972.393,164.779 " />
    <polygon
       transform="translate(-629.571,796.33018)"
       style="fill:#223c55"
       id="polygon3369"
       points="946.051,210.406 919.708,164.779 972.393,164.779 " />
    <polygon
       transform="translate(-629.571,796.33018)"
       style="fill:#2b4c69"
       id="polygon3371"
       points="946.049,119.152 972.391,164.779 919.706,164.779 " />
    <polygon
       transform="translate(-629.571,796.33018)"
       style="fill:#223c55"
       id="polygon3373"
       points="893.365,210.406 867.021,164.779 919.706,164.779 " />
    <polygon
       transform="translate(-629.571,796.33018)"
       style="fill:#2b4c69"
       id="polygon3375"
       points="893.363,119.152 919.705,164.779 867.021,164.779 " />
    <polygon
       transform="translate(-629.571,796.33018)"
       style="fill:#2b4c69"
       id="polygon3377"
       points="1499.248,164.874 1472.907,119.247 1525.592,119.247 " />
    <polygon
       transform="translate(-629.571,796.33018)"
       style="fill:#2b4c69"
       id="polygon3379"
       points="1551.915,164.874 1525.573,119.247 1578.258,119.247 " />
    <polygon
       transform="translate(-629.571,796.33018)"
       style="fill:#5e93b6"
       id="polygon3381"
       points="1604.582,164.874 1578.24,119.247 1630.924,119.247 " />
    <polygon
       transform="translate(-629.571,796.33018)"
       style="fill:#2b4c69"
       id="polygon3383"
       points="1657.248,164.874 1630.906,119.247 1683.591,119.247 " />
    <polygon
       transform="translate(-629.571,796.33018)"
       style="fill:#5e93b6"
       id="polygon3385"
       points="1446.563,73.62 1472.904,119.247 1420.221,119.247 " />
    <polygon
       transform="translate(-629.571,796.33018)"
       style="fill:#8fbad1"
       id="polygon3387"
       points="1393.877,73.62 1420.219,119.247 1367.534,119.247 " />
    <polygon
       transform="translate(-629.571,796.33018)"
       style="fill:#5e93b6"
       id="polygon3389"
       points="1341.191,73.62 1367.533,119.247 1314.85,119.247 " />
    <polygon
       transform="translate(-629.571,796.33018)"
       style="fill:#e0edf6"
       id="polygon3391"
       points="1288.506,164.874 1262.163,119.247 1314.85,119.247 " />
    <polygon
       transform="translate(-629.571,796.33018)"
       style="fill:#2b4c69"
       id="polygon3393"
       points="1288.505,73.62 1314.848,119.247 1262.162,119.247 " />
    <polygon
       transform="translate(-629.571,796.33018)"
       style="fill:#2b4c69"
       id="polygon3395"
       points="1235.82,164.874 1209.478,119.247 1262.162,119.247 " />
    <polygon
       transform="translate(-629.571,796.33018)"
       style="fill:#223c55"
       id="polygon3397"
       points="1235.819,73.62 1262.161,119.247 1209.477,119.247 " />
    <polygon
       transform="translate(-629.571,796.33018)"
       style="fill:#5e93b6"
       id="polygon3399"
       points="1183.135,164.874 1156.792,119.247 1209.477,119.247 " />
    <polygon
       transform="translate(-629.571,796.33018)"
       style="fill:#2b4c69"
       id="polygon3401"
       points="1183.134,73.62 1209.476,119.247 1156.791,119.247 " />
    <polygon
       transform="translate(-629.571,796.33018)"
       style="fill:#223c55"
       id="polygon3403"
       points="1130.449,164.874 1104.107,119.247 1156.791,119.247 " />
    <polygon
       transform="translate(-629.571,796.33018)"
       style="fill:#2b4c69"
       id="polygon3405"
       points="1130.448,73.62 1156.79,119.247 1104.105,119.247 " />
    <polygon
       transform="translate(-629.571,796.33018)"
       style="fill:#223c55"
       id="polygon3407"
       points="1077.764,164.874 1051.422,119.247 1104.105,119.247 " />
    <polygon
       transform="translate(-629.571,796.33018)"
       style="fill:#2b4c69"
       id="polygon3409"
       points="1077.763,73.62 1104.104,119.247 1051.421,119.247 " />
    <polygon
       transform="translate(-629.571,796.33018)"
       style="fill:#223c55"
       id="polygon3411"
       points="1025.078,164.874 998.734,119.247 1051.421,119.247 " />
    <polygon
       transform="translate(-629.571,796.33018)"
       style="fill:#2b4c69"
       id="polygon3413"
       points="1025.077,73.62 1051.42,119.247 998.734,119.247 " />
    <polygon
       transform="translate(-629.571,796.33018)"
       style="fill:#223c55"
       id="polygon3415"
       points="972.393,164.874 946.049,119.247 998.734,119.247 " />
    <polygon
       transform="translate(-629.571,796.33018)"
       style="fill:#2b4c69"
       id="polygon3417"
       points="972.391,73.62 998.732,119.247 946.048,119.247 " />
    <polygon
       transform="translate(-629.571,796.33018)"
       style="fill:#223c55"
       id="polygon3419"
       points="919.706,164.874 893.363,119.247 946.048,119.247 " />
    <polygon
       transform="translate(-629.571,796.33018)"
       style="fill:#2b4c69"
       id="polygon3421"
       points="919.705,73.62 946.047,119.247 893.362,119.247 " />
    <polygon
       transform="translate(-629.571,796.33018)"
       style="fill:#5e93b6"
       id="polygon3423"
       points="1472.906,27.993 1499.249,73.62 1446.564,73.62 " />
    <polygon
       transform="translate(-629.571,796.33018)"
       style="fill:#8fbad1"
       id="polygon3425"
       points="1420.221,27.993 1446.563,73.62 1393.879,73.62 " />
    <polygon
       transform="translate(-629.571,796.33018)"
       style="fill:#223c55"
       id="polygon3427"
       points="1314.85,27.993 1341.191,73.62 1288.506,73.62 " />
    <polygon
       transform="translate(-629.571,796.33018)"
       style="fill:#8fbad1"
       id="polygon3429"
       points="1209.479,119.247 1183.136,73.62 1235.82,73.62 " />
    <polygon
       transform="translate(-629.571,796.33018)"
       style="fill:#2b4c69"
       id="polygon3431"
       points="1209.478,27.993 1235.819,73.62 1183.135,73.62 " />
    <polygon
       transform="translate(-629.571,796.33018)"
       style="fill:#8fbad1"
       id="polygon3433"
       points="1156.793,119.247 1130.451,73.62 1183.135,73.62 " />
    <polygon
       transform="translate(-629.571,796.33018)"
       style="fill:#2b4c69"
       id="polygon3435"
       points="1156.792,27.993 1183.134,73.62 1130.449,73.62 " />
    <polygon
       transform="translate(-629.571,796.33018)"
       style="fill:#e0edf6"
       id="polygon3437"
       points="1104.107,119.247 1077.766,73.62 1130.449,73.62 " />
    <polygon
       transform="translate(-629.571,796.33018)"
       style="fill:#8fbad1"
       id="polygon3439"
       points="1104.106,27.993 1130.448,73.62 1077.765,73.62 " />
    <polygon
       transform="translate(-629.571,796.33018)"
       style="fill:#223c55"
       id="polygon3441"
       points="1051.422,119.247 1025.079,73.62 1077.765,73.62 " />
    <polygon
       transform="translate(-629.571,796.33018)"
       style="fill:#8fbad1"
       id="polygon3443"
       points="1051.421,27.993 1077.764,73.62 1025.078,73.62 " />
    <polygon
       transform="translate(-629.571,796.33018)"
       style="fill:#8fbad1"
       id="polygon3445"
       points="998.736,119.247 972.394,73.62 1025.078,73.62 " />
    <polygon
       transform="translate(-629.571,796.33018)"
       style="fill:#223c55"
       id="polygon3447"
       points="998.734,27.993 1025.077,73.62 972.393,73.62 " />
    <polygon
       transform="translate(-629.571,796.33018)"
       style="fill:#8fbad1"
       id="polygon3449"
       points="946.051,119.247 919.708,73.62 972.393,73.62 " />
    <polygon
       transform="translate(-629.571,796.33018)"
       style="fill:#223c55"
       id="polygon3451"
       points="893.365,119.247 867.021,73.62 919.706,73.62 " />
    <polygon
       transform="translate(-629.571,796.33018)"
       style="fill:#223c55"
       id="polygon3453"
       points="893.363,27.993 919.705,73.62 867.021,73.62 " />
    <polygon
       transform="translate(-629.571,796.33018)"
       style="fill:#8fbad1"
       id="polygon3455"
       points="1499.249,73.646 1472.907,28.018 1525.592,28.018 " />
    <polygon
       transform="translate(-629.571,796.33018)"
       style="fill:#5e93b6"
       id="polygon3457"
       points="1393.877,-17.608 1420.219,28.018 1367.534,28.018 " />
    <polygon
       transform="translate(-629.571,796.33018)"
       style="fill:#8fbad1"
       id="polygon3459"
       points="1341.191,-17.608 1367.533,28.018 1314.85,28.018 " />
    <polygon
       transform="translate(-629.571,796.33018)"
       style="fill:#2b4c69"
       id="polygon3461"
       points="1288.506,73.646 1262.163,28.018 1314.85,28.018 " />
    <polygon
       transform="translate(-629.571,796.33018)"
       style="fill:#5e93b6"
       id="polygon3463"
       points="1288.505,-17.608 1314.848,28.018 1262.162,28.018 " />
    <polygon
       transform="translate(-629.571,796.33018)"
       style="fill:#5e93b6"
       id="polygon3465"
       points="1235.82,73.646 1209.478,28.018 1262.162,28.018 " />
    <polygon
       transform="translate(-629.571,796.33018)"
       style="fill:#8fbad1"
       id="polygon3467"
       points="1183.135,73.646 1156.792,28.018 1209.477,28.018 " />
    <polygon
       transform="translate(-629.571,796.33018)"
       style="fill:#5e93b6"
       id="polygon3469"
       points="1183.134,-17.608 1209.476,28.018 1156.791,28.018 " />
    <polygon
       transform="translate(-629.571,796.33018)"
       style="fill:#223c55"
       id="polygon3471"
       points="1130.449,73.646 1104.107,28.018 1156.791,28.018 " />
    <polygon
       transform="translate(-629.571,796.33018)"
       style="fill:#8fbad1"
       id="polygon3473"
       points="1130.448,-17.608 1156.79,28.018 1104.105,28.018 " />
    <polygon
       transform="translate(-629.571,796.33018)"
       style="fill:#2b4c69"
       id="polygon3475"
       points="1025.078,73.646 998.734,28.018 1051.421,28.018 " />
    <polygon
       transform="translate(-629.571,796.33018)"
       style="fill:#223c55"
       id="polygon3477"
       points="1025.077,-17.608 1051.42,28.018 998.734,28.018 " />
    <polygon
       transform="translate(-629.571,796.33018)"
       style="fill:#8fbad1"
       id="polygon3479"
       points="972.393,73.646 946.049,28.018 998.734,28.018 " />
    <polygon
       transform="translate(-629.571,796.33018)"
       style="fill:#8fbad1"
       id="polygon3481"
       points="919.706,73.645 893.363,28.018 946.048,28.018 " />
    <polygon
       transform="translate(-629.571,796.33018)"
       style="fill:#223c55"
       id="polygon3483"
       points="919.705,-17.609 946.047,28.018 893.362,28.018 " />
    <polygon
       transform="translate(-629.571,796.33018)"
       style="fill:#8fbad1"
       id="polygon3485"
       points="1472.906,-63.236 1499.249,-17.608 1446.564,-17.608 " />
    <polygon
       transform="translate(-629.571,796.33018)"
       style="fill:#8fbad1"
       id="polygon3487"
       points="1420.222,28.018 1393.88,-17.608 1446.564,-17.608 " />
    <polygon
       transform="translate(-629.571,796.33018)"
       style="fill:#e0edf6"
       id="polygon3489"
       points="1367.534,-63.236 1393.877,-17.608 1341.193,-17.608 " />
    <polygon
       transform="translate(-629.571,796.33018)"
       style="fill:#e0edf6"
       id="polygon3491"
       points="1314.85,28.018 1288.508,-17.608 1341.193,-17.608 " />
    <polygon
       transform="translate(-629.571,796.33018)"
       style="fill:#e0edf6"
       id="polygon3493"
       points="1262.164,28.018 1235.821,-17.608 1288.506,-17.608 " />
    <polygon
       transform="translate(-629.571,796.33018)"
       style="fill:#8fbad1"
       id="polygon3495"
       points="1209.478,-63.236 1235.819,-17.608 1183.135,-17.608 " />
    <polygon
       transform="translate(-629.571,796.33018)"
       style="fill:#e0edf6"
       id="polygon3497"
       points="1156.793,28.018 1130.451,-17.608 1183.135,-17.608 " />
    <polygon
       transform="translate(-629.571,796.33018)"
       style="fill:#8fbad1"
       id="polygon3499"
       points="1156.792,-63.236 1183.134,-17.608 1130.449,-17.608 " />
    <polygon
       transform="translate(-629.571,796.33018)"
       style="fill:#2b4c69"
       id="polygon3501"
       points="1104.107,28.018 1077.766,-17.608 1130.449,-17.608 " />
    <line
       style="fill:#8fbad1"
       id="line3503"
       y2="778.72217"
       x2="448.19394"
       y1="778.72217"
       x1="500.87738" />
    <path
       style="fill:#e0edf6"
       inkscape:connector-curvature="0"
       id="path3505"
       d="M 395.507,778.72218" />
    <path
       style="fill:#e0edf6"
       inkscape:connector-curvature="0"
       id="path3507"
       d="M 448.193,778.72218" />
    <polygon
       transform="translate(-629.571,796.33018)"
       style="fill:#8fbad1"
       id="polygon3509"
       points="946.051,28.018 919.708,-17.609 972.393,-17.608 " />
    <line
       style="fill:#8fbad1"
       id="line3511"
       y2="778.72119"
       x2="290.13489"
       y1="778.72217"
       x1="342.81989" />
    <line
       style="fill:#8fbad1"
       id="line3513"
       y2="824.34814"
       x2="263.79388"
       y1="778.72119"
       x1="290.13489" />
    <path
       style="fill:#8fbad1"
       inkscape:connector-curvature="0"
       id="path3515"
       d="M 290.134,778.72118" />
    <polygon
       transform="translate(-629.571,796.33018)"
       style="fill:#e0edf6"
       id="polygon3517"
       points="1446.563,-17.63 1420.222,-63.258 1472.906,-63.258 " />
    <polygon
       transform="translate(-629.571,796.33018)"
       style="fill:#8fbad1"
       id="polygon3519"
       points="1446.563,-108.884 1472.904,-63.258 1420.221,-63.258 " />
    <polygon
       transform="translate(-629.571,796.33018)"
       style="fill:#e0edf6"
       id="polygon3521"
       points="1393.877,-108.884 1420.219,-63.258 1367.534,-63.258 " />
    <path
       style="fill:#e0edf6"
       inkscape:connector-curvature="0"
       id="path3523"
       d="M 520.737,734.84018" />
    <path
       style="fill:#e0edf6"
       inkscape:connector-curvature="0"
       id="path3525"
       d="M 481.544,700.97318" />
    <path
       style="fill:#e0edf6"
       inkscape:connector-curvature="0"
       id="path3527"
       d="M 448.193,778.70018" />
    <path
       style="fill:#e0edf6"
       inkscape:connector-curvature="0"
       id="path3529"
       d="M 395.507,778.70018" />
    <path
       style="fill:#8fbad1"
       inkscape:connector-curvature="0"
       id="path3531"
       d="M 342.822,778.70018" />
    <path
       style="fill:#8fbad1"
       inkscape:connector-curvature="0"
       id="path3533"
       d="M 844.677,699.26318" />
    <path
       style="fill:#8fbad1"
       inkscape:connector-curvature="0"
       id="path3535"
       d="M 793.697,699.26318" />
    <path
       style="fill:#8fbad1"
       inkscape:connector-curvature="0"
       id="path3537"
       d="M 844.675,699.26318" />
    <path
       style="fill:#8fbad1"
       inkscape:connector-curvature="0"
       id="path3539"
       d="M 742.717,699.26318" />
    <path
       style="fill:#8fbad1"
       inkscape:connector-curvature="0"
       id="path3541"
       d="M 793.696,699.26318" />
    <path
       style="fill:#8fbad1"
       inkscape:connector-curvature="0"
       id="path3543"
       d="M 691.738,699.26318" />
    <path
       style="fill:#8fbad1"
       inkscape:connector-curvature="0"
       id="path3545"
       d="M 742.716,699.26318" />
    <path
       style="fill:#8fbad1"
       inkscape:connector-curvature="0"
       id="path3547"
       d="M 487.818,699.26318" />
    <path
       style="fill:#e0edf6"
       inkscape:connector-curvature="0"
       id="path3549"
       d="M 487.817,699.26318" />
    <path
       style="fill:#e0edf6"
       inkscape:connector-curvature="0"
       id="path3551"
       d="M 844.675,699.28618" />
    <path
       style="fill:#e0edf6"
       inkscape:connector-curvature="0"
       id="path3553"
       d="M 793.696,699.28618" />
    <path
       style="fill:#e0edf6"
       inkscape:connector-curvature="0"
       id="path3555"
       d="M 742.716,699.28618" />
    <path
       style="fill:#8fbad1"
       inkscape:connector-curvature="0"
       id="path3557"
       d="M 589.777,699.28618" />
    <path
       style="fill:#8fbad1"
       inkscape:connector-curvature="0"
       id="path3559"
       d="M 487.818,699.28618" />
    <polygon
       transform="translate(-629.571,796.33018)"
       style="fill:#8fbad1"
       id="polygon3561"
       points="867.02,164.779 893.361,210.406 840.677,210.406 " />
    <polygon
       transform="translate(-629.571,796.33018)"
       style="fill:#223c55"
       id="polygon3563"
       points="814.334,164.779 840.676,210.406 787.991,210.406 " />
    <polygon
       transform="translate(-629.571,796.33018)"
       style="fill:#223c55"
       id="polygon3565"
       points="761.648,164.779 787.99,210.406 735.307,210.406 " />
    <polygon
       transform="translate(-629.571,796.33018)"
       style="fill:#223c55"
       id="polygon3567"
       points="708.963,164.779 735.306,210.406 682.62,210.406 " />
    <polygon
       transform="translate(-629.571,796.33018)"
       style="fill:#223c55"
       id="polygon3569"
       points="656.277,164.779 682.619,210.406 629.934,210.406 " />
    <polygon
       transform="translate(-629.571,796.33018)"
       style="fill:#2b4c69"
       id="polygon3571"
       points="840.679,210.406 814.337,164.779 867.021,164.779 " />
    <polygon
       transform="translate(-629.571,796.33018)"
       style="fill:#8fbad1"
       id="polygon3573"
       points="840.678,119.152 867.02,164.779 814.335,164.779 " />
    <polygon
       transform="translate(-629.571,796.33018)"
       style="fill:#2b4c69"
       id="polygon3575"
       points="787.993,210.406 761.651,164.779 814.335,164.779 " />
    <polygon
       transform="translate(-629.571,796.33018)"
       style="fill:#2b4c69"
       id="polygon3577"
       points="787.992,119.152 814.334,164.779 761.65,164.779 " />
    <polygon
       transform="translate(-629.571,796.33018)"
       style="fill:#e0edf6"
       id="polygon3579"
       points="735.308,210.406 708.965,164.779 761.65,164.779 " />
    <polygon
       transform="translate(-629.571,796.33018)"
       style="fill:#2b4c69"
       id="polygon3581"
       points="735.307,119.152 761.649,164.779 708.964,164.779 " />
    <polygon
       transform="translate(-629.571,796.33018)"
       style="fill:#2b4c69"
       id="polygon3583"
       points="682.622,210.406 656.279,164.779 708.964,164.779 " />
    <polygon
       transform="translate(-629.571,796.33018)"
       style="fill:#5e93b6"
       id="polygon3585"
       points="1657.305,256.032 1683.648,210.405 1630.962,210.405 " />
    <polygon
       transform="translate(-629.571,796.33018)"
       style="fill:#5e93b6"
       id="polygon3587"
       points="1604.619,256.032 1630.962,210.405 1578.276,210.405 " />
    <polygon
       transform="translate(-629.571,796.33018)"
       style="fill:#8fbad1"
       id="polygon3589"
       points="1551.934,256.032 1578.275,210.405 1525.592,210.405 " />
    <polygon
       transform="translate(-629.571,796.33018)"
       style="fill:#2b4c69"
       id="polygon3591"
       points="1341.191,256.032 1367.533,210.405 1314.85,210.405 " />
    <polygon
       transform="translate(-629.571,796.33018)"
       style="fill:#8fbad1"
       id="polygon3593"
       points="1288.505,256.032 1314.848,210.405 1262.162,210.405 " />
    <polygon
       transform="translate(-629.571,796.33018)"
       style="fill:#223c55"
       id="polygon3595"
       points="1235.819,256.032 1262.161,210.405 1209.477,210.405 " />
    <polygon
       transform="translate(-629.571,796.33018)"
       style="fill:#223c55"
       id="polygon3597"
       points="1183.134,256.032 1209.476,210.405 1156.791,210.405 " />
    <polygon
       transform="translate(-629.571,796.33018)"
       style="fill:#8fbad1"
       id="polygon3599"
       points="1130.448,256.032 1156.79,210.405 1104.105,210.405 " />
    <polygon
       transform="translate(-629.571,796.33018)"
       style="fill:#2b4c69"
       id="polygon3601"
       points="1077.763,256.032 1104.104,210.405 1051.421,210.405 " />
    <polygon
       transform="translate(-629.571,796.33018)"
       style="fill:#223c55"
       id="polygon3603"
       points="1025.077,256.032 1051.42,210.405 998.734,210.405 " />
    <polygon
       transform="translate(-629.571,796.33018)"
       style="fill:#2b4c69"
       id="polygon3605"
       points="972.391,256.032 998.732,210.405 946.048,210.405 " />
    <polygon
       transform="translate(-629.571,796.33018)"
       style="fill:#2b4c69"
       id="polygon3607"
       points="919.705,256.032 946.047,210.405 893.362,210.405 " />
    <polygon
       transform="translate(-629.571,796.33018)"
       style="fill:#e0edf6"
       id="polygon3609"
       points="1683.649,210.405 1657.307,256.032 1709.993,256.032 " />
    <polygon
       transform="translate(-629.571,796.33018)"
       style="fill:#8fbad1"
       id="polygon3611"
       points="1761.803,256.032 1788.146,210.405 1735.46,210.405 " />
    <polygon
       transform="translate(-629.571,796.33018)"
       style="fill:#e0edf6"
       id="polygon3613"
       points="1788.148,210.405 1761.805,256.032 1814.491,256.032 " />
    <polygon
       transform="translate(-629.571,796.33018)"
       style="fill:#223c55"
       id="polygon3615"
       points="1525.593,210.405 1499.251,256.032 1551.936,256.032 " />
    <polygon
       transform="translate(-629.571,796.33018)"
       style="fill:#8fbad1"
       id="polygon3617"
       points="1472.907,210.405 1446.565,256.032 1499.25,256.032 " />
    <polygon
       transform="translate(-629.571,796.33018)"
       style="fill:#8fbad1"
       id="polygon3619"
       points="1420.222,210.405 1393.88,256.032 1446.564,256.032 " />
    <polygon
       transform="translate(-629.571,796.33018)"
       style="fill:#223c55"
       id="polygon3621"
       points="1367.535,210.405 1341.193,256.032 1393.879,256.032 " />
    <polygon
       transform="translate(-629.571,796.33018)"
       style="fill:#223c55"
       id="polygon3623"
       points="1314.85,210.405 1288.508,256.032 1341.193,256.032 " />
    <polygon
       transform="translate(-629.571,796.33018)"
       style="fill:#5e93b6"
       id="polygon3625"
       points="1262.164,210.405 1235.821,256.032 1288.506,256.032 " />
    <polygon
       transform="translate(-629.571,796.33018)"
       style="fill:#2b4c69"
       id="polygon3627"
       points="1209.479,210.405 1183.136,256.032 1235.82,256.032 " />
    <polygon
       transform="translate(-629.571,796.33018)"
       style="fill:#2b4c69"
       id="polygon3629"
       points="1156.793,210.405 1130.451,256.032 1183.135,256.032 " />
    <polygon
       transform="translate(-629.571,796.33018)"
       style="fill:#223c55"
       id="polygon3631"
       points="1104.107,210.405 1077.766,256.032 1130.449,256.032 " />
    <polygon
       transform="translate(-629.571,796.33018)"
       style="fill:#8fbad1"
       id="polygon3633"
       points="1051.422,210.405 1025.079,256.032 1077.765,256.032 " />
    <polygon
       transform="translate(-629.571,796.33018)"
       style="fill:#2b4c69"
       id="polygon3635"
       points="998.736,210.405 972.394,256.032 1025.078,256.032 " />
    <polygon
       transform="translate(-629.571,796.33018)"
       style="fill:#223c55"
       id="polygon3637"
       points="946.051,210.405 919.708,256.032 972.393,256.032 " />
    <polygon
       transform="translate(-629.571,796.33018)"
       style="fill:#223c55"
       id="polygon3639"
       points="893.365,210.405 867.021,256.032 919.706,256.032 " />
    <polygon
       transform="translate(-629.571,796.33018)"
       style="fill:#8fbad1"
       id="polygon3641"
       points="867.02,256.032 893.361,210.405 840.677,210.405 " />
    <polygon
       transform="translate(-629.571,796.33018)"
       style="fill:#223c55"
       id="polygon3643"
       points="814.334,256.032 840.676,210.405 787.991,210.405 " />
    <polygon
       transform="translate(-629.571,796.33018)"
       style="fill:#5e93b6"
       id="polygon3645"
       points="761.648,256.032 787.99,210.405 735.307,210.405 " />
    <polygon
       transform="translate(-629.571,796.33018)"
       style="fill:#223c55"
       id="polygon3647"
       points="708.963,256.032 735.306,210.405 682.62,210.405 " />
    <polygon
       transform="translate(-629.571,796.33018)"
       style="fill:#8fbad1"
       id="polygon3649"
       points="656.277,256.032 682.619,210.405 629.934,210.405 " />
    <polygon
       transform="translate(-629.571,796.33018)"
       style="fill:#2b4c69"
       id="polygon3651"
       points="840.679,210.405 814.337,256.032 867.021,256.032 " />
    <polygon
       transform="translate(-629.571,796.33018)"
       style="fill:#2b4c69"
       id="polygon3653"
       points="787.993,210.405 761.651,256.032 814.335,256.032 " />
    <polygon
       transform="translate(-629.571,796.33018)"
       style="fill:#2b4c69"
       id="polygon3655"
       points="735.308,210.405 708.965,256.032 761.65,256.032 " />
    <polygon
       transform="translate(-629.571,796.33018)"
       style="fill:#2b4c69"
       id="polygon3657"
       points="682.622,210.405 656.279,256.032 708.964,256.032 " />
    <polygon
       transform="translate(-629.571,796.33018)"
       style="fill:#e0edf6"
       id="polygon3659"
       points="682.621,119.152 708.963,164.779 656.278,164.779 " />
    <polygon
       transform="translate(-629.571,796.33018)"
       style="fill:#5e93b6"
       id="polygon3661"
       points="867.021,164.874 840.678,119.247 893.362,119.247 " />
    <polygon
       transform="translate(-629.571,796.33018)"
       style="fill:#2b4c69"
       id="polygon3663"
       points="867.02,73.62 893.361,119.247 840.677,119.247 " />
    <polygon
       transform="translate(-629.571,796.33018)"
       style="fill:#223c55"
       id="polygon3665"
       points="814.335,164.874 787.993,119.247 840.677,119.247 " />
    <polygon
       transform="translate(-629.571,796.33018)"
       style="fill:#2b4c69"
       id="polygon3667"
       points="814.334,73.62 840.676,119.247 787.991,119.247 " />
    <polygon
       transform="translate(-629.571,796.33018)"
       style="fill:#223c55"
       id="polygon3669"
       points="761.649,164.874 735.308,119.247 787.991,119.247 " />
    <polygon
       transform="translate(-629.571,796.33018)"
       style="fill:#223c55"
       id="polygon3671"
       points="708.964,164.874 682.621,119.247 735.307,119.247 " />
    <polygon
       transform="translate(-629.571,796.33018)"
       style="fill:#2b4c69"
       id="polygon3673"
       points="708.963,73.62 735.306,119.247 682.62,119.247 " />
    <polygon
       transform="translate(-629.571,796.33018)"
       style="fill:#223c55"
       id="polygon3675"
       points="656.278,164.874 629.936,119.247 682.62,119.247 " />
    <polygon
       transform="translate(-629.571,796.33018)"
       style="fill:#2b4c69"
       id="polygon3677"
       points="656.277,73.62 682.619,119.247 629.934,119.247 " />
    <polygon
       transform="translate(-629.571,796.33018)"
       style="fill:#8fbad1"
       id="polygon3679"
       points="840.679,119.247 814.337,73.62 867.021,73.62 " />
    <polygon
       transform="translate(-629.571,796.33018)"
       style="fill:#2b4c69"
       id="polygon3681"
       points="840.678,27.993 867.02,73.62 814.335,73.62 " />
    <polygon
       transform="translate(-629.571,796.33018)"
       style="fill:#e0edf6"
       id="polygon3683"
       points="787.993,119.247 761.651,73.62 814.335,73.62 " />
    <polygon
       transform="translate(-629.571,796.33018)"
       style="fill:#8fbad1"
       id="polygon3685"
       points="787.992,27.993 814.334,73.62 761.65,73.62 " />
    <polygon
       transform="translate(-629.571,796.33018)"
       style="fill:#223c55"
       id="polygon3687"
       points="735.308,119.247 708.965,73.62 761.65,73.62 " />
    <polygon
       transform="translate(-629.571,796.33018)"
       style="fill:#8fbad1"
       id="polygon3689"
       points="735.307,27.993 761.649,73.62 708.964,73.62 " />
    <polygon
       transform="translate(-629.571,796.33018)"
       style="fill:#8fbad1"
       id="polygon3691"
       points="682.622,119.247 656.279,73.62 708.964,73.62 " />
    <polygon
       transform="translate(-629.571,796.33018)"
       style="fill:#223c55"
       id="polygon3693"
       points="682.621,27.993 708.963,73.62 656.278,73.62 " />
    <polygon
       transform="translate(-629.571,796.33018)"
       style="fill:#2b4c69"
       id="polygon3695"
       points="629.915,210.406 603.572,164.779 656.257,164.779 " />
    <polygon
       transform="translate(-629.571,796.33018)"
       style="fill:#2b4c69"
       id="polygon3697"
       points="629.915,210.405 603.572,256.032 656.257,256.032 " />
    <polygon
       transform="translate(-629.571,796.33018)"
       style="fill:#e0edf6"
       id="polygon3699"
       points="629.914,119.152 656.256,164.779 603.571,164.779 " />
    <polygon
       transform="translate(-629.571,796.33018)"
       style="fill:#8fbad1"
       id="polygon3701"
       points="629.915,119.247 603.572,73.62 656.257,73.62 " />
    <polygon
       transform="translate(-629.571,796.33018)"
       style="fill:#223c55"
       id="polygon3703"
       points="629.914,27.993 656.256,73.62 603.571,73.62 " />
    <polygon
       transform="translate(-629.571,796.33018)"
       style="fill:#8fbad1"
       id="polygon3705"
       points="867.021,73.645 840.678,28.018 893.362,28.018 " />
    <path
       style="fill:#5e93b6"
       inkscape:connector-curvature="0"
       id="path3707"
       d="M 211.106,824.34818" />
    <path
       style="fill:#5e93b6"
       inkscape:connector-curvature="0"
       id="path3709"
       d="M 263.79,824.34818" />
    <polygon
       transform="translate(-629.571,796.33018)"
       style="fill:#223c55"
       id="polygon3711"
       points="814.335,73.645 787.993,28.018 840.677,28.018 " />
    <line
       style="fill:#8fbad1"
       id="line3713"
       y2="824.34814"
       x2="158.41994"
       y1="824.34814"
       x1="211.10497" />
    <path
       style="fill:#223c55"
       inkscape:connector-curvature="0"
       id="path3715"
       d="M 105.736,824.34818" />
    <path
       style="fill:#223c55"
       inkscape:connector-curvature="0"
       id="path3717"
       d="M 158.419,824.34818" />
    <polygon
       transform="translate(-629.571,796.33018)"
       style="fill:#8fbad1"
       id="polygon3719"
       points="656.278,73.645 629.936,28.018 682.62,28.018 " />
    <path
       style="fill:#2b4c69"
       inkscape:connector-curvature="0"
       id="path3721"
       d="M 0.363,824.34818" />
    <path
       style="fill:#2b4c69"
       inkscape:connector-curvature="0"
       id="path3723"
       d="M 53.048,824.34818" />
    <path
       style="fill:#2b4c69"
       inkscape:connector-curvature="0"
       id="path3725"
       d="M 211.108,824.34818" />
    <path
       style="fill:#2b4c69"
       inkscape:connector-curvature="0"
       id="path3727"
       d="M 158.422,824.34818" />
    <path
       style="fill:#8fbad1"
       inkscape:connector-curvature="0"
       id="path3729"
       d="M 105.737,824.34818" />
    <path
       style="fill:#8fbad1"
       inkscape:connector-curvature="0"
       id="path3731"
       d="M 53.051,824.34818" />
  </g>
</svg>
