<?xml version="1.0" encoding="UTF-8" standalone="no"?>
<!-- Created with Inkscape (http://www.inkscape.org/) -->

<svg
   xmlns:dc="http://purl.org/dc/elements/1.1/"
   xmlns:cc="http://creativecommons.org/ns#"
   xmlns:rdf="http://www.w3.org/1999/02/22-rdf-syntax-ns#"
   xmlns:svg="http://www.w3.org/2000/svg"
   xmlns="http://www.w3.org/2000/svg"
   xmlns:sodipodi="http://sodipodi.sourceforge.net/DTD/sodipodi-0.dtd"
   xmlns:inkscape="http://www.inkscape.org/namespaces/inkscape"
   width="26.0569"
   height="22.853739"
   id="svg4373"
   version="1.1"
   inkscape:version="0.48.4 r9939"
   sodipodi:docname="Nuevo documento 11">
  <defs
     id="defs4375" />
  <sodipodi:namedview
     id="base"
     pagecolor="#ffffff"
     bordercolor="#666666"
     borderopacity="1.0"
     inkscape:pageopacity="0.0"
     inkscape:pageshadow="2"
     inkscape:zoom="0.35"
     inkscape:cx="0.17130266"
     inkscape:cy="14.284014"
     inkscape:document-units="px"
     inkscape:current-layer="layer1"
     showgrid="false"
     fit-margin-top="0"
     fit-margin-left="0"
     fit-margin-right="0"
     fit-margin-bottom="0"
     inkscape:window-width="679"
     inkscape:window-height="729"
     inkscape:window-x="2283"
     inkscape:window-y="18"
     inkscape:window-maximized="0" />
  <metadata
     id="metadata4378">
    <rdf:RDF>
      <cc:Work
         rdf:about="">
        <dc:format>image/svg+xml</dc:format>
        <dc:type
           rdf:resource="http://purl.org/dc/dcmitype/StillImage" />
        <dc:title></dc:title>
      </cc:Work>
    </rdf:RDF>
  </metadata>
  <g
     inkscape:label="Capa 1"
     inkscape:groupmode="layer"
     id="layer1"
     transform="translate(-349.8287,-523.79246)">
    <path
       id="path4146"
       d="m 372.13038,523.94298 c -0.808,0.264 -2.533,1.946 -0.345,4.948 2.187,3.004 0.892,6.423 0.892,6.423 l -1.905,6.327 -4.8,-14.275 c 0,0 1.355,-0.102 1.549,-0.132 0.193,-0.029 0.517,-0.22 0.462,-0.625 -0.054,-0.406 -0.351,-0.464 -0.635,-0.449 -0.142,0.01 -1.815,0.134 -3.478,0.134 -1.652,0 -3.293,-0.127 -3.409,-0.134 -0.235,-0.014 -0.573,0.014 -0.655,0.382 -0.059,0.307 0.088,0.649 0.42,0.688 0.333,0.039 0.11,0.011 1.452,0.137 0,0 0.913,2.498 2.068,5.659 l -2.925,8.677 -4.814,-14.336 c 0,0 1.354,-0.103 1.548,-0.132 0.194,-0.029 0.518,-0.22 0.463,-0.625 -0.054,-0.406 -0.352,-0.464 -0.635,-0.449 -0.142,0.01 -1.816,0.134 -3.478,0.134 -1.652,-10e-4 -3.293,-0.127 -3.41,-0.134 -0.234,-0.014 -0.574,0.013 -0.654,0.38 -0.059,0.309 0.089,0.651 0.42,0.689 0.333,0.039 0.11,0.011 1.452,0.135 0,0 6.407,17.547 6.747,18.488 0.339,0.94 1.746,1.186 2.147,-0.046 0.295,-0.91 2.599,-7.596 3.781,-11.021 1.791,4.912 3.848,10.544 4.036,11.066 0.339,0.941 1.746,1.187 2.146,-0.045 0.4,-1.232 2.668,-7.584 4.611,-13.273 1.722,-5.186 0.126,-9.624 -3.051,-8.591 z"
       inkscape:connector-curvature="0"
       style="fill:#ece9e2" />
  </g>
</svg>
