<?xml version="1.0" encoding="UTF-8" standalone="no"?>
<!-- Created with Inkscape (http://www.inkscape.org/) -->

<svg
   xmlns:dc="http://purl.org/dc/elements/1.1/"
   xmlns:cc="http://creativecommons.org/ns#"
   xmlns:rdf="http://www.w3.org/1999/02/22-rdf-syntax-ns#"
   xmlns:svg="http://www.w3.org/2000/svg"
   xmlns="http://www.w3.org/2000/svg"
   xmlns:sodipodi="http://sodipodi.sourceforge.net/DTD/sodipodi-0.dtd"
   xmlns:inkscape="http://www.inkscape.org/namespaces/inkscape"
   width="28.645"
   height="33.057999"
   id="svg4483"
   version="1.1"
   inkscape:version="0.48.4 r9939"
   sodipodi:docname="Nuevo documento 17">
  <defs
     id="defs4485" />
  <sodipodi:namedview
     id="base"
     pagecolor="#ffffff"
     bordercolor="#666666"
     borderopacity="1.0"
     inkscape:pageopacity="0.0"
     inkscape:pageshadow="2"
     inkscape:zoom="0.35"
     inkscape:cx="-67.1061"
     inkscape:cy="-149.18528"
     inkscape:document-units="px"
     inkscape:current-layer="layer1"
     showgrid="false"
     fit-margin-top="0"
     fit-margin-left="0"
     fit-margin-right="0"
     fit-margin-bottom="0"
     inkscape:window-width="679"
     inkscape:window-height="729"
     inkscape:window-x="2283"
     inkscape:window-y="18"
     inkscape:window-maximized="0" />
  <metadata
     id="metadata4488">
    <rdf:RDF>
      <cc:Work
         rdf:about="">
        <dc:format>image/svg+xml</dc:format>
        <dc:type
           rdf:resource="http://purl.org/dc/dcmitype/StillImage" />
        <dc:title></dc:title>
      </cc:Work>
    </rdf:RDF>
  </metadata>
  <g
     inkscape:label="Capa 1"
     inkscape:groupmode="layer"
     id="layer1"
     transform="translate(-417.1061,-350.1189)">
    <g
       id="g4128"
       transform="translate(-1535.2489,-1658.5781)">
      <g
         id="g4130">
        <path
           id="path4132"
           d="m 1970.861,2021.59 c 0.529,0 1.264,-0.274 2.022,-1.176 v 1.04 h 1.749 v -9.41 h -1.749 v 7.142 c -0.214,0.268 -0.688,0.705 -1.028,0.705 -0.376,0 -0.467,-0.255 -0.467,-0.633 v -7.215 h -1.75 v 7.866 c 10e-4,0.929 0.286,1.681 1.223,1.681 z"
           inkscape:connector-curvature="0"
           style="fill:#ece9e2" />
        <path
           id="path4134"
           d="m 1963.074,2019.106 c 0,1.658 0.868,2.521 2.564,2.521 1.407,0 2.515,-0.94 2.515,-2.521 v -4.612 c 0,-1.474 -1.096,-2.528 -2.515,-2.528 -1.542,0 -2.564,1.019 -2.564,2.528 v 4.612 z m 1.802,-4.457 c 0,-0.516 0.237,-0.897 0.729,-0.897 0.536,0 0.766,0.37 0.766,0.897 v 4.378 c 0,0.513 -0.261,0.891 -0.732,0.891 -0.482,0 -0.763,-0.396 -0.763,-0.891 v -4.378 z"
           inkscape:connector-curvature="0"
           style="fill:#ece9e2" />
        <polygon
           id="polygon4136"
           points="1958.9,2021.454 1960.871,2021.454 1960.871,2016.279 1963.164,2008.697 1961.163,2008.697 1959.9,2013.795 1958.541,2008.697 1956.558,2008.697 1958.9,2016.279 "
           style="fill:#ece9e2" />
      </g>
      <g
         id="g4138">
        <path
           id="path4140"
           d="m 1976.988,2023.595 h -20.622 c -2.216,0 -4.011,1.797 -4.011,4.013 v 10.135 c 0,2.216 1.795,4.012 4.011,4.012 h 20.622 c 2.217,0 4.012,-1.796 4.012,-4.012 v -10.135 c 0,-2.216 -1.795,-4.013 -4.012,-4.013 z m -17.874,15.156 h -1.876 v -10.386 h -1.942 v -1.765 h 5.76 v 1.765 h -1.941 v 10.386 z m 6.675,0 h -1.666 v -0.989 c -0.308,0.364 -0.628,0.643 -0.959,0.833 -0.898,0.515 -2.131,0.504 -2.131,-1.315 v -7.49 h 1.666 v 6.869 c 0,0.36 0.088,0.604 0.443,0.604 0.324,0 0.777,-0.417 0.98,-0.671 v -6.803 h 1.666 v 8.962 z m 6.414,-1.856 c 0,1.108 -0.415,1.97 -1.523,1.97 -0.61,0 -1.119,-0.223 -1.583,-0.802 v 0.688 h -1.683 v -12.15 h 1.683 v 3.912 c 0.375,-0.458 0.886,-0.837 1.48,-0.837 1.221,0 1.626,1.031 1.626,2.246 v 4.973 z m 6.159,-2.415 h -3.188 v 1.69 c 0,0.673 0.057,1.253 0.728,1.253 0.704,0 0.745,-0.473 0.745,-1.253 v -0.623 h 1.715 v 0.674 c 0,1.726 -0.742,2.772 -2.498,2.772 -1.591,0 -2.404,-1.16 -2.404,-2.772 v -4.022 c 0,-1.558 1.026,-2.637 2.53,-2.637 1.599,0 2.372,1.016 2.372,2.637 v 2.281 z"
           inkscape:connector-curvature="0"
           style="fill:#ece9e2" />
        <path
           id="path4142"
           d="m 1975.92,2031.132 c -0.617,0 -0.745,0.435 -0.745,1.05 v 0.906 h 1.473 v -0.906 c -10e-4,-0.608 -0.13,-1.05 -0.728,-1.05 z"
           inkscape:connector-curvature="0"
           style="fill:#ece9e2" />
        <path
           id="path4144"
           d="m 1969.44,2031.187 c -0.117,0.06 -0.23,0.15 -0.344,0.273 v 5.585 c 0.136,0.146 0.268,0.252 0.395,0.315 0.271,0.138 0.669,0.148 0.852,-0.093 0.098,-0.125 0.146,-0.331 0.146,-0.617 v -4.628 c 0,-0.302 -0.061,-0.532 -0.179,-0.688 -0.201,-0.266 -0.578,-0.295 -0.87,-0.147 z"
           inkscape:connector-curvature="0"
           style="fill:#ece9e2" />
      </g>
    </g>
  </g>
</svg>
