<?xml version="1.0" encoding="UTF-8" standalone="no"?>
<!-- Created with Inkscape (http://www.inkscape.org/) -->

<svg
   xmlns:dc="http://purl.org/dc/elements/1.1/"
   xmlns:cc="http://creativecommons.org/ns#"
   xmlns:rdf="http://www.w3.org/1999/02/22-rdf-syntax-ns#"
   xmlns:svg="http://www.w3.org/2000/svg"
   xmlns="http://www.w3.org/2000/svg"
   xmlns:sodipodi="http://sodipodi.sourceforge.net/DTD/sodipodi-0.dtd"
   xmlns:inkscape="http://www.inkscape.org/namespaces/inkscape"
   width="40.895172"
   height="49.055313"
   id="svg5036"
   version="1.1"
   inkscape:version="0.48.4 r9939"
   sodipodi:docname="Nuevo documento 4">
  <defs
     id="defs5038" />
  <sodipodi:namedview
     id="base"
     pagecolor="#ffffff"
     bordercolor="#666666"
     borderopacity="1.0"
     inkscape:pageopacity="0.0"
     inkscape:pageshadow="2"
     inkscape:zoom="0.35"
     inkscape:cx="-12.409559"
     inkscape:cy="-204.04377"
     inkscape:document-units="px"
     inkscape:current-layer="layer1"
     showgrid="false"
     fit-margin-top="0"
     fit-margin-left="0"
     fit-margin-right="0"
     fit-margin-bottom="0"
     inkscape:window-width="1362"
     inkscape:window-height="729"
     inkscape:window-x="1600"
     inkscape:window-y="18"
     inkscape:window-maximized="0" />
  <metadata
     id="metadata5041">
    <rdf:RDF>
      <cc:Work
         rdf:about="">
        <dc:format>image/svg+xml</dc:format>
        <dc:type
           rdf:resource="http://purl.org/dc/dcmitype/StillImage" />
        <dc:title></dc:title>
      </cc:Work>
    </rdf:RDF>
  </metadata>
  <g
     inkscape:label="Capa 1"
     inkscape:groupmode="layer"
     id="layer1"
     transform="translate(-362.40956,-279.2631)">
    <g
       transform="translate(-720.87927,-2.8235893)"
       id="g3899">
      <g
         id="g3901">
        <g
           id="g3903">
          <path
             style="fill:#ffffff"
             inkscape:connector-curvature="0"
             id="path3905"
             d="m 1120.348,290.661 c 0,0 0,0 0,-0.004 -0.465,-0.654 -0.952,-1.291 -1.496,-1.891 -3.368,-3.741 -8.097,-6.048 -13.083,-6.574 -2.298,-0.246 -4.619,-0.053 -6.852,0.495 -0.136,-0.035 -0.28,-0.004 -0.412,0.092 -2.535,0.676 -4.943,1.825 -7.049,3.408 -3.986,3 -6.78,7.422 -7.771,12.316 -1.015,5.035 -0.058,10.355 2.622,14.732 1.044,1.707 2.346,3.232 3.834,4.548 v 12.57 c 0,0.43 0.354,0.789 0.784,0.789 h 25.482 c 0.212,0 0.369,-0.083 0.492,-0.193 0.021,-0.012 0.039,-0.025 0.056,-0.043 0.019,-0.012 0.027,-0.03 0.041,-0.048 0.113,-0.127 0.191,-0.285 0.191,-0.504 v -12.435 c 2.36,-2.079 4.238,-4.698 5.462,-7.609 1.03,-2.453 1.525,-5.124 1.535,-7.777 -0.017,-4.281 -1.376,-8.416 -3.832,-11.872 l 0,0 z m -5.812,20.837 c -1.421,-1 -2.837,-2 -4.254,-3 -0.074,-0.053 -0.158,-0.083 -0.251,-0.097 -0.249,-0.043 -0.539,0.041 -0.701,0.22 -0.847,0.934 -1.697,1.868 -2.548,2.798 -0.948,1.044 -1.896,2.083 -2.842,3.127 -0.913,-1.004 -1.825,-2.009 -2.737,-3.014 -0.877,-0.964 -1.751,-1.934 -2.628,-2.899 -0.141,-0.157 -0.368,-0.228 -0.583,-0.223 -0.135,0.004 -0.264,0.027 -0.368,0.101 -1.399,0.938 -2.799,1.882 -4.198,2.825 -0.152,0.044 -0.306,0.092 -0.455,0.136 -0.61,-2.448 -0.909,-4.974 -0.829,-7.553 0.01,-0.298 0.035,-0.601 0.058,-0.899 h 5.043 c 0.486,1.439 1.215,2.843 2.18,3.948 1.276,1.46 2.97,2.399 5.097,2.197 1.693,-0.162 3.035,-0.964 4.083,-2.114 1.009,-1.105 1.737,-2.526 2.224,-4.031 h 4.25 c 0.192,2.855 0.01,5.706 -0.541,8.478 l 0,0 z m -20.526,-17.316 c 0.921,0.273 1.851,0.509 2.794,0.72 -0.338,1.574 -0.426,3.206 -0.285,4.781 0.058,0.631 0.175,1.307 0.338,1.991 h -4.549 c 0.271,-2.549 0.865,-5.063 1.702,-7.492 l 0,0 z m 11.676,-4.733 c 3.088,1.504 4.104,5.659 4.127,8.777 -0.018,2.591 -0.658,5.377 -2.381,7.386 -1.269,1.478 -3.207,2.294 -5.063,1.39 -2.131,-1.039 -3.249,-3.477 -3.775,-5.667 -0.649,-2.706 -0.444,-5.767 0.688,-8.32 1.079,-2.421 3.566,-4.947 6.404,-3.566 l 0,0 z m 5.623,5.724 c 0.754,-0.162 1.495,-0.359 2.231,-0.583 0.677,2.315 1.154,4.688 1.408,7.083 h -3.75 c 0.272,-1.188 0.399,-2.373 0.409,-3.443 0,-1.017 -0.101,-2.047 -0.298,-3.057 l 0,0 z m 3.5,-0.999 c 1.658,-0.593 3.259,-1.352 4.775,-2.259 1.926,2.881 3.054,6.268 3.22,9.759 h -6.495 c -0.259,-2.541 -0.772,-5.053 -1.5,-7.5 l 0,0 z m 2.06,-5.506 c 0.702,0.663 1.33,1.387 1.917,2.145 -1.412,0.834 -2.872,1.527 -4.381,2.057 -0.382,-1.171 -0.813,-2.329 -1.29,-3.465 -0.636,-1.53 -1.333,-3.07 -2.154,-4.526 2.172,0.891 4.185,2.163 5.908,3.789 l 0,0 z m -7.907,-4.495 c 1.061,1.641 1.925,3.439 2.701,5.229 0.549,1.263 1.035,2.557 1.465,3.873 -0.71,0.21 -1.429,0.398 -2.153,0.553 -0.373,-1.259 -0.921,-2.46 -1.693,-3.527 -1.131,-1.561 -2.798,-2.798 -4.719,-2.996 -0.044,-1.28 -0.088,-2.561 -0.132,-3.837 1.54,0.052 3.062,0.284 4.531,0.705 l 0,0 z m -9.908,0.044 c 0.053,-0.074 0.105,-0.145 0.158,-0.219 1.264,-0.311 2.562,-0.5 3.872,-0.548 l 0.132,3.898 c -2.241,0.352 -3.979,2.018 -5.07,3.943 -0.417,0.724 -0.736,1.5 -0.995,2.298 -0.899,-0.198 -1.794,-0.421 -2.676,-0.679 0.303,-0.791 0.619,-1.575 0.969,-2.342 0.781,-1.711 1.676,-3.368 2.681,-4.956 0.297,-0.473 0.604,-0.938 0.929,-1.395 l 0,0 z m -9.088,5.07 c 2.009,-2.096 4.486,-3.663 7.181,-4.654 -0.672,1.031 -1.281,2.105 -1.852,3.184 -0.799,1.518 -1.505,3.088 -2.115,4.693 -0.916,-0.298 -1.832,-0.619 -2.723,-0.978 -0.57,-0.228 -1.166,-0.492 -1.755,-0.772 0.396,-0.508 0.817,-0.999 1.264,-1.473 l 0,0 z m -2.058,2.588 c 1.54,0.767 3.171,1.381 4.812,1.908 -0.702,2.052 -1.231,4.162 -1.561,6.302 -0.083,0.531 -0.145,1.058 -0.202,1.588 h -6.285 c 0.153,-3.509 1.29,-6.899 3.236,-9.798 l 0,0 z m -3.262,11.145 h 6.201 c -0.145,2.413 -0.017,4.833 0.417,7.224 0.105,0.562 0.229,1.118 0.369,1.675 -0.36,0.127 -0.72,0.25 -1.074,0.391 -0.842,0.333 -1.697,0.697 -2.501,1.136 -2.115,-3.049 -3.307,-6.689 -3.412,-10.426 l 0,0 z m 5.492,10.983 v 1.929 c -0.444,-0.447 -0.86,-0.912 -1.256,-1.399 0.417,-0.228 0.843,-0.433 1.272,-0.622 -0.01,0.035 -0.016,0.056 -0.016,0.092 l 0,0 z m 25.477,15.565 h -11.162 c 0.32,-3.268 1.034,-10.952 1.412,-12.702 0.022,-0.074 -0.049,-0.201 -0.137,-0.171 -0.604,0.228 -1.815,0.663 -1.815,0.663 0,0 -1.347,-0.531 -1.728,-0.676 -0.03,-0.03 -0.074,-0.035 -0.115,-0.012 -0.012,0.004 -0.047,0.04 -0.056,0.053 0,0.012 0,0.021 0,0.03 0,0.014 -0.01,0.026 -0.01,0.044 0.347,1.75 1.004,9.491 1.294,12.772 h -11.588 v -15.184 c 2.062,-1.387 4.123,-2.777 6.185,-4.167 1.829,2.017 3.658,4.034 5.487,6.052 0.276,0.308 0.833,0.304 1.109,0 1.838,-2.018 3.675,-4.035 5.509,-6.052 1.872,1.319 3.745,2.64 5.618,3.965 v 15.385 z m 1.676,-13.579 c -0.031,0.035 -0.07,0.062 -0.106,0.096 v -1.854 c 0,-0.18 -0.01,-0.343 -0.03,-0.497 0.527,0.193 1.049,0.396 1.57,0.61 -0.448,0.571 -0.921,1.123 -1.434,1.645 l 0,0 z m 2.241,-2.754 c -1.216,-0.5 -2.452,-0.948 -3.71,-1.342 0.564,-2.807 0.779,-5.689 0.617,-8.584 -0.01,-0.097 -0.017,-0.193 -0.025,-0.29 h 6.395 c -0.107,3.672 -1.246,7.207 -3.277,10.216 l 0,0 z m 0,0" />
        </g>
      </g>
    </g>
  </g>
</svg>
